<mxfile host="Electron" agent="Mozilla/5.0 (X11; Linux x86_64) AppleWebKit/537.36 (KHTML, like Gecko) draw.io/24.7.17 Chrome/128.0.6613.36 Electron/32.0.1 Safari/537.36" version="24.7.17">
  <diagram name="Page-1" id="7fl2-ZSV6QaIEvgjWsZY">
    <mxGraphModel dx="2790" dy="1802" grid="0" gridSize="1" guides="0" tooltips="1" connect="0" arrows="0" fold="1" page="0" pageScale="1" pageWidth="1920" pageHeight="1200" math="0" shadow="0">
      <root>
        <mxCell id="0" />
        <mxCell id="1" parent="0" />
        <mxCell id="YAKH-8tsJ9ISijEvY5ng-2" value="&lt;font style=&quot;font-size: 14px;&quot;&gt;UC-07&lt;/font&gt;&lt;div style=&quot;font-size: 14px;&quot;&gt;Ativar Procedimento&lt;/div&gt;&lt;div style=&quot;font-size: 14px;&quot;&gt;de Emergência Geral&lt;/div&gt;" style="ellipse;whiteSpace=wrap;html=1;" parent="1" vertex="1">
          <mxGeometry x="444" y="-129" width="216" height="80" as="geometry" />
        </mxCell>
        <mxCell id="YAKH-8tsJ9ISijEvY5ng-10" value="" style="group" parent="1" vertex="1" connectable="0">
          <mxGeometry x="-159" y="-4" width="30" height="885" as="geometry" />
        </mxCell>
        <mxCell id="YAKH-8tsJ9ISijEvY5ng-8" style="edgeStyle=none;curved=0;rounded=1;orthogonalLoop=1;jettySize=auto;html=1;fontSize=12;startSize=8;endSize=8;dashed=1;endArrow=none;endFill=0;" parent="YAKH-8tsJ9ISijEvY5ng-10" source="YAKH-8tsJ9ISijEvY5ng-6" edge="1">
          <mxGeometry relative="1" as="geometry">
            <mxPoint x="15" y="1013" as="targetPoint" />
            <mxPoint x="15" y="128.42523840036182" as="sourcePoint" />
          </mxGeometry>
        </mxCell>
        <mxCell id="YAKH-8tsJ9ISijEvY5ng-9" value="" style="edgeStyle=none;curved=0;rounded=1;orthogonalLoop=1;jettySize=auto;html=1;fontSize=12;startSize=8;endSize=8;dashed=1;endArrow=none;endFill=0;" parent="YAKH-8tsJ9ISijEvY5ng-10" target="YAKH-8tsJ9ISijEvY5ng-6" edge="1">
          <mxGeometry relative="1" as="geometry">
            <mxPoint x="15" y="754.6511627906976" as="targetPoint" />
            <mxPoint x="15" y="116.9074074074074" as="sourcePoint" />
          </mxGeometry>
        </mxCell>
        <mxCell id="YAKH-8tsJ9ISijEvY5ng-6" value="" style="html=1;points=[];perimeter=orthogonalPerimeter;rounded=0;shadow=0;comic=0;labelBackgroundColor=none;strokeWidth=1;fontFamily=Verdana;fontSize=12;align=center;" parent="YAKH-8tsJ9ISijEvY5ng-10" vertex="1">
          <mxGeometry x="10" y="146" width="10" height="22" as="geometry" />
        </mxCell>
        <mxCell id="YAKH-8tsJ9ISijEvY5ng-3" value="Sistema/Alarme&lt;div&gt;de Emergência&lt;/div&gt;" style="shape=umlActor;verticalLabelPosition=bottom;verticalAlign=top;html=1;outlineConnect=0;" parent="YAKH-8tsJ9ISijEvY5ng-10" vertex="1">
          <mxGeometry y="13" width="30" height="56.46" as="geometry" />
        </mxCell>
        <mxCell id="YAKH-8tsJ9ISijEvY5ng-16" value="" style="endArrow=classic;html=1;rounded=1;strokeColor=default;align=center;verticalAlign=middle;fontFamily=Helvetica;fontSize=12;fontColor=default;labelBackgroundColor=default;edgeStyle=none;startSize=8;endSize=8;curved=0;" parent="1" edge="1">
          <mxGeometry width="50" height="50" relative="1" as="geometry">
            <mxPoint x="-139" y="152" as="sourcePoint" />
            <mxPoint x="94" y="153" as="targetPoint" />
          </mxGeometry>
        </mxCell>
        <mxCell id="YAKH-8tsJ9ISijEvY5ng-17" value="disparaAlarme()" style="edgeLabel;html=1;align=center;verticalAlign=middle;resizable=0;points=[];fontSize=11;fontFamily=Helvetica;fontColor=default;labelBackgroundColor=default;" parent="YAKH-8tsJ9ISijEvY5ng-16" vertex="1" connectable="0">
          <mxGeometry x="-0.1181" y="1" relative="1" as="geometry">
            <mxPoint x="6" y="-10" as="offset" />
          </mxGeometry>
        </mxCell>
        <mxCell id="YAKH-8tsJ9ISijEvY5ng-37" value=":AlarmeEmergencia" style="shape=umlLifeline;perimeter=lifelinePerimeter;whiteSpace=wrap;html=1;container=0;collapsible=0;recursiveResize=0;outlineConnect=0;rounded=1;shadow=0;comic=0;labelBackgroundColor=none;strokeWidth=1;fontFamily=Helvetica;fontSize=14;align=center;" parent="1" vertex="1">
          <mxGeometry x="18" y="13" width="162" height="996" as="geometry" />
        </mxCell>
        <mxCell id="YAKH-8tsJ9ISijEvY5ng-38" value="" style="html=1;points=[];perimeter=orthogonalPerimeter;rounded=0;shadow=0;comic=0;labelBackgroundColor=none;strokeWidth=1;fontFamily=Verdana;fontSize=12;align=center;container=0;" parent="1" vertex="1">
          <mxGeometry x="94.73" y="147" width="8.53" height="51" as="geometry" />
        </mxCell>
        <mxCell id="Cu2QGeTz2ypJLkXz-Kmp-1" value=":SistemaControle" style="shape=umlLifeline;perimeter=lifelinePerimeter;whiteSpace=wrap;html=1;container=0;collapsible=0;recursiveResize=0;outlineConnect=0;rounded=1;shadow=0;comic=0;labelBackgroundColor=none;strokeWidth=1;fontFamily=Helvetica;fontSize=14;align=center;" parent="1" vertex="1">
          <mxGeometry x="271" y="13" width="162" height="994" as="geometry" />
        </mxCell>
        <mxCell id="hTcx7FH-oT0N74Yx47Nf-19" value="" style="html=1;points=[];perimeter=orthogonalPerimeter;rounded=0;shadow=0;comic=0;labelBackgroundColor=none;strokeWidth=1;fontFamily=Verdana;fontSize=12;align=center;container=0;" parent="1" vertex="1">
          <mxGeometry x="347.74" y="178" width="8.53" height="799" as="geometry" />
        </mxCell>
        <mxCell id="FEfmYeELnHghtayQA8-O-4" value=":Elevador" style="shape=umlLifeline;perimeter=lifelinePerimeter;whiteSpace=wrap;html=1;container=0;collapsible=0;recursiveResize=0;outlineConnect=0;rounded=1;shadow=0;comic=0;labelBackgroundColor=none;strokeWidth=1;fontFamily=Helvetica;fontSize=14;align=center;" parent="1" vertex="1">
          <mxGeometry x="475" y="13" width="162" height="988" as="geometry" />
        </mxCell>
        <mxCell id="FEfmYeELnHghtayQA8-O-5" value="" style="endArrow=classic;html=1;rounded=0;fontSize=12;startSize=8;endSize=8;curved=1;" parent="1" edge="1">
          <mxGeometry width="50" height="50" relative="1" as="geometry">
            <mxPoint x="104" y="189" as="sourcePoint" />
            <mxPoint x="347" y="189" as="targetPoint" />
          </mxGeometry>
        </mxCell>
        <mxCell id="FEfmYeELnHghtayQA8-O-6" value="ativarProcedimentoEmergenciaGeral()" style="edgeLabel;html=1;align=center;verticalAlign=middle;resizable=0;points=[];fontSize=12;" parent="FEfmYeELnHghtayQA8-O-5" vertex="1" connectable="0">
          <mxGeometry x="-0.6294" relative="1" as="geometry">
            <mxPoint x="63" y="-11" as="offset" />
          </mxGeometry>
        </mxCell>
        <mxCell id="FEfmYeELnHghtayQA8-O-10" value="" style="html=1;points=[];perimeter=orthogonalPerimeter;rounded=0;shadow=0;comic=0;labelBackgroundColor=none;strokeWidth=1;fontFamily=Verdana;fontSize=12;align=center;container=0;" parent="1" vertex="1">
          <mxGeometry x="551.73" y="231" width="8.53" height="624" as="geometry" />
        </mxCell>
        <mxCell id="hTcx7FH-oT0N74Yx47Nf-1" value="" style="html=1;points=[];perimeter=orthogonalPerimeter;rounded=0;shadow=0;comic=0;labelBackgroundColor=none;strokeWidth=1;fontFamily=Verdana;fontSize=12;align=center;container=0;" parent="1" vertex="1">
          <mxGeometry x="353" y="202" width="8.53" height="46" as="geometry" />
        </mxCell>
        <mxCell id="hTcx7FH-oT0N74Yx47Nf-2" value="" style="endArrow=classic;html=1;rounded=1;fontSize=12;startSize=8;endSize=8;curved=0;" parent="1" edge="1">
          <mxGeometry width="50" height="50" relative="1" as="geometry">
            <mxPoint x="361.53" y="207" as="sourcePoint" />
            <mxPoint x="361.53" y="240" as="targetPoint" />
            <Array as="points">
              <mxPoint x="382.53" y="207.5" />
              <mxPoint x="382.53" y="238.5" />
            </Array>
          </mxGeometry>
        </mxCell>
        <mxCell id="hTcx7FH-oT0N74Yx47Nf-3" value="iniciarLogDaOperacao()" style="edgeLabel;html=1;align=center;verticalAlign=middle;resizable=0;points=[];fontSize=12;fontFamily=Helvetica;fontColor=default;labelBackgroundColor=default;" parent="hTcx7FH-oT0N74Yx47Nf-2" vertex="1" connectable="0">
          <mxGeometry x="-0.0328" y="1" relative="1" as="geometry">
            <mxPoint x="65" y="1" as="offset" />
          </mxGeometry>
        </mxCell>
        <mxCell id="CYarrMMnaNMWQBJYAK4D-2" value="" style="endArrow=classic;html=1;rounded=0;fontSize=12;startSize=8;endSize=8;curved=1;" parent="1" edge="1">
          <mxGeometry width="50" height="50" relative="1" as="geometry">
            <mxPoint x="356.27" y="269" as="sourcePoint" />
            <mxPoint x="550" y="269" as="targetPoint" />
          </mxGeometry>
        </mxCell>
        <mxCell id="CYarrMMnaNMWQBJYAK4D-3" value="getAndarAtual()" style="edgeLabel;html=1;align=center;verticalAlign=middle;resizable=0;points=[];fontSize=12;" parent="CYarrMMnaNMWQBJYAK4D-2" vertex="1" connectable="0">
          <mxGeometry x="-0.17" relative="1" as="geometry">
            <mxPoint x="-30" y="-9" as="offset" />
          </mxGeometry>
        </mxCell>
        <mxCell id="CYarrMMnaNMWQBJYAK4D-4" value="" style="endArrow=open;html=1;rounded=0;fontSize=12;startSize=8;endSize=8;curved=1;entryX=1.191;entryY=0.151;entryDx=0;entryDy=0;entryPerimeter=0;endFill=0;dashed=1;" parent="1" target="hTcx7FH-oT0N74Yx47Nf-19" edge="1">
          <mxGeometry width="50" height="50" relative="1" as="geometry">
            <mxPoint x="551.27" y="298" as="sourcePoint" />
            <mxPoint x="409" y="299" as="targetPoint" />
          </mxGeometry>
        </mxCell>
        <mxCell id="CYarrMMnaNMWQBJYAK4D-5" value="andarAtual" style="edgeLabel;html=1;align=center;verticalAlign=middle;resizable=0;points=[];fontSize=12;" parent="CYarrMMnaNMWQBJYAK4D-4" vertex="1" connectable="0">
          <mxGeometry x="-0.17" relative="1" as="geometry">
            <mxPoint x="39" y="-9" as="offset" />
          </mxGeometry>
        </mxCell>
        <mxCell id="CYarrMMnaNMWQBJYAK4D-6" value="" style="endArrow=classic;html=1;rounded=0;fontSize=12;startSize=8;endSize=8;curved=1;" parent="1" edge="1">
          <mxGeometry width="50" height="50" relative="1" as="geometry">
            <mxPoint x="356" y="337" as="sourcePoint" />
            <mxPoint x="549.73" y="337" as="targetPoint" />
          </mxGeometry>
        </mxCell>
        <mxCell id="CYarrMMnaNMWQBJYAK4D-7" value="getSentidoAtual()" style="edgeLabel;html=1;align=center;verticalAlign=middle;resizable=0;points=[];fontSize=12;" parent="CYarrMMnaNMWQBJYAK4D-6" vertex="1" connectable="0">
          <mxGeometry x="-0.17" relative="1" as="geometry">
            <mxPoint x="-27" y="-10" as="offset" />
          </mxGeometry>
        </mxCell>
        <mxCell id="CYarrMMnaNMWQBJYAK4D-8" value="" style="endArrow=open;html=1;rounded=0;fontSize=12;startSize=8;endSize=8;curved=1;entryX=1.164;entryY=0.461;entryDx=0;entryDy=0;entryPerimeter=0;endFill=0;dashed=1;" parent="1" edge="1">
          <mxGeometry width="50" height="50" relative="1" as="geometry">
            <mxPoint x="551" y="366" as="sourcePoint" />
            <mxPoint x="357.73" y="365" as="targetPoint" />
          </mxGeometry>
        </mxCell>
        <mxCell id="CYarrMMnaNMWQBJYAK4D-9" value="sentidoAtual" style="edgeLabel;html=1;align=center;verticalAlign=middle;resizable=0;points=[];fontSize=12;" parent="CYarrMMnaNMWQBJYAK4D-8" vertex="1" connectable="0">
          <mxGeometry x="-0.17" relative="1" as="geometry">
            <mxPoint x="31" y="-10" as="offset" />
          </mxGeometry>
        </mxCell>
        <mxCell id="CYarrMMnaNMWQBJYAK4D-10" value="verifica sentido&lt;div&gt;atual&lt;/div&gt;" style="shape=umlFrame;whiteSpace=wrap;html=1;pointerEvents=0;width=133;height=42;" parent="1" vertex="1">
          <mxGeometry x="123" y="388" width="504" height="161" as="geometry" />
        </mxCell>
        <mxCell id="CYarrMMnaNMWQBJYAK4D-11" value="[se sentidoAtual&lt;div style=&quot;font-size: 12px;&quot;&gt;&quot;subindo&quot;]&lt;/div&gt;" style="text;html=1;align=center;verticalAlign=middle;resizable=0;points=[];autosize=1;strokeColor=none;fillColor=none;fontSize=12;" parent="1" vertex="1">
          <mxGeometry x="130" y="436" width="103" height="41" as="geometry" />
        </mxCell>
        <mxCell id="CYarrMMnaNMWQBJYAK4D-12" value="" style="endArrow=none;html=1;rounded=0;fontSize=12;startSize=8;endSize=8;curved=1;entryX=0.996;entryY=0.517;entryDx=0;entryDy=0;entryPerimeter=0;dashed=1;endFill=0;" parent="1" edge="1">
          <mxGeometry width="50" height="50" relative="1" as="geometry">
            <mxPoint x="124" y="484.38" as="sourcePoint" />
            <mxPoint x="625.9839999999999" y="483.9970000000002" as="targetPoint" />
          </mxGeometry>
        </mxCell>
        <mxCell id="CYarrMMnaNMWQBJYAK4D-13" value="" style="endArrow=classic;html=1;rounded=0;fontSize=12;startSize=8;endSize=8;curved=1;" parent="1" edge="1">
          <mxGeometry width="50" height="50" relative="1" as="geometry">
            <mxPoint x="357" y="427" as="sourcePoint" />
            <mxPoint x="550" y="427" as="targetPoint" />
          </mxGeometry>
        </mxCell>
        <mxCell id="CYarrMMnaNMWQBJYAK4D-14" value="enviarParaAndar(andarAtual + 1)" style="edgeLabel;html=1;align=center;verticalAlign=middle;resizable=0;points=[];fontSize=12;" parent="CYarrMMnaNMWQBJYAK4D-13" vertex="1" connectable="0">
          <mxGeometry x="-0.3808" y="2" relative="1" as="geometry">
            <mxPoint x="33" y="-9" as="offset" />
          </mxGeometry>
        </mxCell>
        <mxCell id="CYarrMMnaNMWQBJYAK4D-15" value="" style="endArrow=classic;html=1;rounded=0;fontSize=12;startSize=8;endSize=8;curved=1;entryX=-0.108;entryY=0.341;entryDx=0;entryDy=0;entryPerimeter=0;" parent="1" edge="1">
          <mxGeometry width="50" height="50" relative="1" as="geometry">
            <mxPoint x="357" y="518" as="sourcePoint" />
            <mxPoint x="551" y="518" as="targetPoint" />
          </mxGeometry>
        </mxCell>
        <mxCell id="CYarrMMnaNMWQBJYAK4D-16" value="enviarParaAndar(andarAtual - 1)" style="edgeLabel;html=1;align=center;verticalAlign=middle;resizable=0;points=[];fontSize=12;" parent="CYarrMMnaNMWQBJYAK4D-15" vertex="1" connectable="0">
          <mxGeometry x="-0.3808" y="2" relative="1" as="geometry">
            <mxPoint x="33" y="-9" as="offset" />
          </mxGeometry>
        </mxCell>
        <mxCell id="CYarrMMnaNMWQBJYAK4D-18" value="[se sentidoAtual&lt;div style=&quot;font-size: 12px;&quot;&gt;&quot;descendo&quot;]&lt;/div&gt;" style="text;html=1;align=center;verticalAlign=middle;resizable=0;points=[];autosize=1;strokeColor=none;fillColor=none;fontSize=12;" parent="1" vertex="1">
          <mxGeometry x="130" y="498" width="103" height="41" as="geometry" />
        </mxCell>
        <mxCell id="CYarrMMnaNMWQBJYAK4D-19" value="" style="endArrow=classic;html=1;rounded=0;fontSize=12;startSize=8;endSize=8;curved=1;" parent="1" edge="1">
          <mxGeometry width="50" height="50" relative="1" as="geometry">
            <mxPoint x="357" y="587" as="sourcePoint" />
            <mxPoint x="550" y="587" as="targetPoint" />
          </mxGeometry>
        </mxCell>
        <mxCell id="CYarrMMnaNMWQBJYAK4D-20" value="abrirPorta()" style="edgeLabel;html=1;align=center;verticalAlign=middle;resizable=0;points=[];fontSize=12;" parent="CYarrMMnaNMWQBJYAK4D-19" vertex="1" connectable="0">
          <mxGeometry x="-0.5074" y="1" relative="1" as="geometry">
            <mxPoint y="-11" as="offset" />
          </mxGeometry>
        </mxCell>
        <mxCell id="CYarrMMnaNMWQBJYAK4D-21" value="" style="endArrow=classic;html=1;rounded=0;fontSize=12;startSize=8;endSize=8;curved=1;" parent="1" target="FEfmYeELnHghtayQA8-O-10" edge="1">
          <mxGeometry width="50" height="50" relative="1" as="geometry">
            <mxPoint x="357" y="629" as="sourcePoint" />
            <mxPoint x="407" y="579" as="targetPoint" />
          </mxGeometry>
        </mxCell>
        <mxCell id="CYarrMMnaNMWQBJYAK4D-22" value="getBalanca()" style="edgeLabel;html=1;align=center;verticalAlign=middle;resizable=0;points=[];fontSize=12;" parent="CYarrMMnaNMWQBJYAK4D-21" vertex="1" connectable="0">
          <mxGeometry x="-0.5643" y="2" relative="1" as="geometry">
            <mxPoint x="3" y="-9" as="offset" />
          </mxGeometry>
        </mxCell>
        <mxCell id="CYarrMMnaNMWQBJYAK4D-23" value=":Balanca" style="shape=umlLifeline;perimeter=lifelinePerimeter;whiteSpace=wrap;html=1;container=0;collapsible=0;recursiveResize=0;outlineConnect=0;rounded=1;shadow=0;comic=0;labelBackgroundColor=none;strokeWidth=1;fontFamily=Helvetica;fontSize=14;align=center;" parent="1" vertex="1">
          <mxGeometry x="681" y="14" width="162" height="982" as="geometry" />
        </mxCell>
        <mxCell id="CYarrMMnaNMWQBJYAK4D-24" value="" style="endArrow=open;html=1;rounded=0;fontSize=12;startSize=8;endSize=8;curved=1;endFill=0;dashed=1;" parent="1" target="hTcx7FH-oT0N74Yx47Nf-19" edge="1">
          <mxGeometry width="50" height="50" relative="1" as="geometry">
            <mxPoint x="551" y="649" as="sourcePoint" />
            <mxPoint x="601" y="599" as="targetPoint" />
          </mxGeometry>
        </mxCell>
        <mxCell id="CYarrMMnaNMWQBJYAK4D-25" value="balança" style="edgeLabel;html=1;align=center;verticalAlign=middle;resizable=0;points=[];fontSize=12;" parent="CYarrMMnaNMWQBJYAK4D-24" vertex="1" connectable="0">
          <mxGeometry x="-0.4963" y="2" relative="1" as="geometry">
            <mxPoint x="21" y="9" as="offset" />
          </mxGeometry>
        </mxCell>
        <mxCell id="CYarrMMnaNMWQBJYAK4D-26" value="" style="endArrow=classic;html=1;rounded=0;fontSize=12;startSize=8;endSize=8;curved=1;entryX=-0.105;entryY=0.215;entryDx=0;entryDy=0;entryPerimeter=0;" parent="1" edge="1">
          <mxGeometry width="50" height="50" relative="1" as="geometry">
            <mxPoint x="357" y="692" as="sourcePoint" />
            <mxPoint x="755.99935" y="691.3199999999999" as="targetPoint" />
          </mxGeometry>
        </mxCell>
        <mxCell id="CYarrMMnaNMWQBJYAK4D-27" value="getPeso()" style="edgeLabel;html=1;align=center;verticalAlign=middle;resizable=0;points=[];fontSize=12;" parent="CYarrMMnaNMWQBJYAK4D-26" vertex="1" connectable="0">
          <mxGeometry x="-0.5643" y="2" relative="1" as="geometry">
            <mxPoint x="-50" y="-10" as="offset" />
          </mxGeometry>
        </mxCell>
        <mxCell id="CYarrMMnaNMWQBJYAK4D-28" value="" style="html=1;points=[];perimeter=orthogonalPerimeter;rounded=0;shadow=0;comic=0;labelBackgroundColor=none;strokeWidth=1;fontFamily=Verdana;fontSize=12;align=center;container=0;" parent="1" vertex="1">
          <mxGeometry x="757" y="685" width="9.53" height="48" as="geometry" />
        </mxCell>
        <mxCell id="CYarrMMnaNMWQBJYAK4D-29" value="" style="endArrow=open;html=1;rounded=0;fontSize=12;startSize=8;endSize=8;curved=1;entryX=1.11;entryY=0.677;entryDx=0;entryDy=0;entryPerimeter=0;endFill=0;dashed=1;" parent="1" edge="1">
          <mxGeometry width="50" height="50" relative="1" as="geometry">
            <mxPoint x="757" y="725" as="sourcePoint" />
            <mxPoint x="357.2083" y="726.923" as="targetPoint" />
          </mxGeometry>
        </mxCell>
        <mxCell id="CYarrMMnaNMWQBJYAK4D-30" value="peso" style="edgeLabel;html=1;align=center;verticalAlign=middle;resizable=0;points=[];fontSize=12;" parent="CYarrMMnaNMWQBJYAK4D-29" vertex="1" connectable="0">
          <mxGeometry x="-0.4963" y="2" relative="1" as="geometry">
            <mxPoint x="82" y="7" as="offset" />
          </mxGeometry>
        </mxCell>
        <mxCell id="CYarrMMnaNMWQBJYAK4D-31" value="verifica peso&lt;div&gt;do elevador&lt;/div&gt;" style="shape=umlFrame;whiteSpace=wrap;html=1;pointerEvents=0;width=133;height=42;" parent="1" vertex="1">
          <mxGeometry x="126" y="743" width="478" height="91" as="geometry" />
        </mxCell>
        <mxCell id="CYarrMMnaNMWQBJYAK4D-33" value="[quando peso for 0&lt;div&gt;&lt;span style=&quot;background-color: initial;&quot;&gt;(elevador vazio)]&lt;/span&gt;&lt;/div&gt;" style="text;html=1;align=center;verticalAlign=middle;resizable=0;points=[];autosize=1;strokeColor=none;fillColor=none;fontSize=12;" parent="1" vertex="1">
          <mxGeometry x="127" y="784" width="118" height="41" as="geometry" />
        </mxCell>
        <mxCell id="CYarrMMnaNMWQBJYAK4D-34" value="" style="endArrow=classic;html=1;rounded=0;fontSize=12;startSize=8;endSize=8;curved=1;" parent="1" edge="1">
          <mxGeometry width="50" height="50" relative="1" as="geometry">
            <mxPoint x="357" y="801" as="sourcePoint" />
            <mxPoint x="550" y="801" as="targetPoint" />
          </mxGeometry>
        </mxCell>
        <mxCell id="CYarrMMnaNMWQBJYAK4D-35" value="fecharPorta()" style="edgeLabel;html=1;align=center;verticalAlign=middle;resizable=0;points=[];fontSize=12;" parent="CYarrMMnaNMWQBJYAK4D-34" vertex="1" connectable="0">
          <mxGeometry x="-0.5074" y="1" relative="1" as="geometry">
            <mxPoint y="-11" as="offset" />
          </mxGeometry>
        </mxCell>
        <mxCell id="CYarrMMnaNMWQBJYAK4D-37" value="" style="endArrow=classic;html=1;rounded=0;fontSize=12;startSize=8;endSize=8;curved=1;" parent="1" target="CYarrMMnaNMWQBJYAK4D-40" edge="1">
          <mxGeometry width="50" height="50" relative="1" as="geometry">
            <mxPoint x="357" y="870" as="sourcePoint" />
            <mxPoint x="550" y="870" as="targetPoint" />
          </mxGeometry>
        </mxCell>
        <mxCell id="CYarrMMnaNMWQBJYAK4D-38" value="desativarChamadas()" style="edgeLabel;html=1;align=center;verticalAlign=middle;resizable=0;points=[];fontSize=12;" parent="CYarrMMnaNMWQBJYAK4D-37" vertex="1" connectable="0">
          <mxGeometry x="-0.5074" y="1" relative="1" as="geometry">
            <mxPoint x="-79" y="-10" as="offset" />
          </mxGeometry>
        </mxCell>
        <mxCell id="CYarrMMnaNMWQBJYAK4D-39" value=":SistemaChamadas" style="shape=umlLifeline;perimeter=lifelinePerimeter;whiteSpace=wrap;html=1;container=0;collapsible=0;recursiveResize=0;outlineConnect=0;rounded=1;shadow=0;comic=0;labelBackgroundColor=none;strokeWidth=1;fontFamily=Helvetica;fontSize=14;align=center;" parent="1" vertex="1">
          <mxGeometry x="1069" y="14" width="162" height="982" as="geometry" />
        </mxCell>
        <mxCell id="CYarrMMnaNMWQBJYAK4D-40" value="" style="html=1;points=[];perimeter=orthogonalPerimeter;rounded=0;shadow=0;comic=0;labelBackgroundColor=none;strokeWidth=1;fontFamily=Verdana;fontSize=12;align=center;container=0;" parent="1" vertex="1">
          <mxGeometry x="1145" y="859" width="9.53" height="23" as="geometry" />
        </mxCell>
        <mxCell id="hTcx7FH-oT0N74Yx47Nf-23" value="" style="html=1;points=[];perimeter=orthogonalPerimeter;rounded=0;shadow=0;comic=0;labelBackgroundColor=none;strokeWidth=1;fontFamily=Verdana;fontSize=12;align=center;container=0;" parent="1" vertex="1">
          <mxGeometry x="353" y="899" width="8.53" height="46" as="geometry" />
        </mxCell>
        <mxCell id="hTcx7FH-oT0N74Yx47Nf-24" value="" style="endArrow=classic;html=1;rounded=1;fontSize=12;startSize=8;endSize=8;curved=0;" parent="1" edge="1">
          <mxGeometry width="50" height="50" relative="1" as="geometry">
            <mxPoint x="361.53" y="905.5" as="sourcePoint" />
            <mxPoint x="361.53" y="938.5" as="targetPoint" />
            <Array as="points">
              <mxPoint x="382.53" y="906" />
              <mxPoint x="382.53" y="937" />
            </Array>
          </mxGeometry>
        </mxCell>
        <mxCell id="hTcx7FH-oT0N74Yx47Nf-25" value="salvarLogDaOperacao()" style="edgeLabel;html=1;align=center;verticalAlign=middle;resizable=0;points=[];fontSize=12;fontFamily=Helvetica;fontColor=default;labelBackgroundColor=default;" parent="hTcx7FH-oT0N74Yx47Nf-24" vertex="1" connectable="0">
          <mxGeometry x="-0.0328" y="1" relative="1" as="geometry">
            <mxPoint x="71" y="2" as="offset" />
          </mxGeometry>
        </mxCell>
        <mxCell id="RuvA8ItFDA6Pe0zDsunT-1" value="" style="group" vertex="1" connectable="0" parent="1">
          <mxGeometry x="938" y="30" width="30" height="968" as="geometry" />
        </mxCell>
        <mxCell id="RuvA8ItFDA6Pe0zDsunT-2" style="edgeStyle=none;curved=0;rounded=1;orthogonalLoop=1;jettySize=auto;html=1;fontSize=12;startSize=8;endSize=8;dashed=1;endArrow=none;endFill=0;" edge="1" parent="RuvA8ItFDA6Pe0zDsunT-1" source="RuvA8ItFDA6Pe0zDsunT-4">
          <mxGeometry relative="1" as="geometry">
            <mxPoint x="15" y="948.9823182711199" as="targetPoint" />
            <mxPoint x="15" y="140.46963928988728" as="sourcePoint" />
          </mxGeometry>
        </mxCell>
        <mxCell id="RuvA8ItFDA6Pe0zDsunT-3" value="" style="edgeStyle=none;curved=0;rounded=1;orthogonalLoop=1;jettySize=auto;html=1;fontSize=12;startSize=8;endSize=8;dashed=1;endArrow=none;endFill=0;" edge="1" parent="RuvA8ItFDA6Pe0zDsunT-1" target="RuvA8ItFDA6Pe0zDsunT-4">
          <mxGeometry relative="1" as="geometry">
            <mxPoint x="15" y="825.4263565891472" as="targetPoint" />
            <mxPoint x="15" y="106.53510436432637" as="sourcePoint" />
          </mxGeometry>
        </mxCell>
        <mxCell id="RuvA8ItFDA6Pe0zDsunT-4" value="" style="html=1;points=[];perimeter=orthogonalPerimeter;rounded=0;shadow=0;comic=0;labelBackgroundColor=none;strokeWidth=1;fontFamily=Verdana;fontSize=12;align=center;" vertex="1" parent="RuvA8ItFDA6Pe0zDsunT-1">
          <mxGeometry x="10" y="644.0011573834173" width="10" height="64.28842504743834" as="geometry" />
        </mxCell>
        <mxCell id="RuvA8ItFDA6Pe0zDsunT-5" value="Balança" style="shape=umlActor;verticalLabelPosition=bottom;verticalAlign=top;html=1;outlineConnect=0;" vertex="1" parent="RuvA8ItFDA6Pe0zDsunT-1">
          <mxGeometry y="-11" width="30" height="68.6" as="geometry" />
        </mxCell>
        <mxCell id="RuvA8ItFDA6Pe0zDsunT-6" value="" style="endArrow=classic;html=1;rounded=0;fontSize=12;startSize=8;endSize=8;curved=1;" edge="1" parent="1">
          <mxGeometry width="50" height="50" relative="1" as="geometry">
            <mxPoint x="766" y="698" as="sourcePoint" />
            <mxPoint x="947" y="698" as="targetPoint" />
          </mxGeometry>
        </mxCell>
        <mxCell id="RuvA8ItFDA6Pe0zDsunT-7" value="lê peso do sensor" style="edgeLabel;html=1;align=center;verticalAlign=middle;resizable=0;points=[];fontSize=12;" vertex="1" connectable="0" parent="RuvA8ItFDA6Pe0zDsunT-6">
          <mxGeometry x="-0.1514" relative="1" as="geometry">
            <mxPoint x="-17" y="-11" as="offset" />
          </mxGeometry>
        </mxCell>
        <mxCell id="RuvA8ItFDA6Pe0zDsunT-8" value="" style="endArrow=open;html=1;rounded=0;fontSize=12;startSize=8;endSize=8;curved=1;endFill=0;dashed=1;" edge="1" parent="1">
          <mxGeometry width="50" height="50" relative="1" as="geometry">
            <mxPoint x="946" y="715" as="sourcePoint" />
            <mxPoint x="767" y="715" as="targetPoint" />
          </mxGeometry>
        </mxCell>
        <mxCell id="RuvA8ItFDA6Pe0zDsunT-9" value="informa peso no elevador" style="edgeLabel;html=1;align=center;verticalAlign=middle;resizable=0;points=[];fontSize=12;" vertex="1" connectable="0" parent="RuvA8ItFDA6Pe0zDsunT-8">
          <mxGeometry x="-0.0526" y="1" relative="1" as="geometry">
            <mxPoint x="6" y="10" as="offset" />
          </mxGeometry>
        </mxCell>
      </root>
    </mxGraphModel>
  </diagram>
</mxfile>
